<?xml version="1.0" encoding="utf-8"?>
<!-- Generator: Adobe Illustrator 21.1.0, SVG Export Plug-In . SVG Version: 6.00 Build 0)  -->
<svg version="1.1" id="Capa_1" xmlns="http://www.w3.org/2000/svg" xmlns:xlink="http://www.w3.org/1999/xlink" x="0px" y="0px"
	 width="15px" height="14.4px" viewBox="0 0 15 14.4" style="enable-background:new 0 0 15 14.4;" xml:space="preserve">
<path d="M14.7,6.5c0.3-0.3,0.4-0.7,0.3-1.1c-0.1-0.4-0.5-0.7-0.9-0.7l-3.6-0.5c-0.2,0-0.3-0.1-0.4-0.3L8.5,0.6C8.3,0.2,7.9,0,7.5,0
	c-0.4,0-0.8,0.2-1,0.6L4.9,3.9C4.8,4,4.7,4.1,4.6,4.2L0.9,4.7C0.5,4.7,0.2,5,0.1,5.4c-0.1,0.4,0,0.8,0.3,1.1L3,9.1
	c0.1,0.1,0.2,0.3,0.1,0.4l-0.6,3.6c-0.1,0.4,0.1,0.8,0.4,1.1c0.3,0.2,0.8,0.3,1.1,0.1l3.2-1.7c0.1-0.1,0.3-0.1,0.4,0l3.2,1.7
	c0.2,0.1,0.3,0.1,0.5,0.1c0.2,0,0.4-0.1,0.6-0.2c0.3-0.2,0.5-0.6,0.4-1.1l-0.6-3.6c0-0.2,0-0.3,0.1-0.4L14.7,6.5z M11.3,9.6l0.6,3.6
	c0,0.2,0,0.4-0.2,0.5c-0.1,0.1-0.3,0.1-0.5,0L8,12c-0.2-0.1-0.3-0.1-0.5-0.1S7.2,11.9,7,12l-3.2,1.7c-0.2,0.1-0.4,0.1-0.5,0
	c-0.1-0.1-0.2-0.3-0.2-0.5l0.6-3.6c0.1-0.3-0.1-0.7-0.3-1L0.7,6.1C0.6,6,0.6,5.8,0.6,5.6C0.7,5.4,0.8,5.3,1,5.3l3.6-0.5
	C5,4.7,5.3,4.5,5.4,4.2l1.6-3.3c0.1-0.2,0.2-0.3,0.4-0.3c0.2,0,0.3,0.1,0.4,0.3l1.6,3.3c0.2,0.3,0.5,0.5,0.8,0.6L14,5.3
	c0.2,0,0.3,0.1,0.4,0.3c0.1,0.2,0,0.4-0.1,0.5l-2.6,2.6C11.4,8.9,11.3,9.2,11.3,9.6z"/>
</svg>
