<svg width="304" height="104" viewBox="0 0 304 104" fill="none" xmlns="http://www.w3.org/2000/svg">
<path d="M89.0719 55.0234C89.0719 67.1834 83.9039 78.4314 75.9999 86.3354C67.7919 94.2394 56.8479 99.4074 44.3839 99.4074C32.224 99.4074 20.976 94.2394 13.072 86.3354C4.86399 78.4314 0 67.1834 0 55.0234H9.11999C9.11999 64.7514 13.072 73.5674 19.456 79.9514C25.84 86.3354 34.656 90.2874 44.3839 90.2874C54.1119 90.2874 62.9279 86.3354 69.6159 79.9514C75.9999 73.5674 79.9519 64.7514 79.9519 55.0234H89.0719Z" fill="black"/>
<path d="M44.6872 42.5594C41.3432 42.5594 38.3032 43.7754 35.8712 46.2074C33.7432 48.3354 32.5272 51.3754 32.5272 54.7194C32.5272 58.0634 33.7432 61.1034 35.8712 63.2314C38.3032 65.6634 41.3432 66.8794 44.6872 66.8794V75.9994C38.6072 75.9994 33.4392 73.5674 29.4872 69.6154C25.8392 65.9674 23.4072 60.4954 23.4072 54.7194C23.4072 48.9434 25.8392 43.4714 29.4872 39.8234C33.4392 35.8714 38.6072 33.4395 44.6872 33.4395V42.5594Z" fill="#0D8234"/>
<path d="M44.6872 9.11999C41.3432 9.11999 38.3032 10.336 35.8712 12.768C33.7432 14.896 32.5272 17.936 32.5272 21.28H23.4072C23.4072 15.504 25.5352 10.032 29.4872 6.07999C33.4392 2.432 38.6072 0 44.6872 0V9.11999Z" fill="#E9A317"/>
<path d="M44.3838 16.7188C50.1598 16.7188 55.6318 19.1507 59.2798 23.1027C63.2318 26.7507 65.6638 32.2227 65.6638 37.9987C65.6638 43.7747 63.2318 49.2467 59.2798 53.1987C55.6318 56.8467 50.1598 59.2787 44.3838 59.2787V50.1587C47.7278 50.1587 50.7678 48.9427 52.8958 46.5107C55.0238 44.3827 56.5438 41.3427 56.5438 37.9987C56.5438 34.6547 55.0238 31.6147 52.8958 29.4867C50.7678 27.0547 47.7278 25.8387 44.3838 25.8387V16.7188Z" fill="#E61717"/>
<path d="M299.193 93.3262C299.443 93.8106 299.693 94.0527 300.444 94.0527C301.194 94.0527 301.444 93.8106 301.694 93.3262H302.445C302.445 94.0527 301.444 94.7793 300.444 94.7793C299.193 94.7793 298.443 94.0527 298.193 93.3262H299.193ZM297.693 103.014H296.942V95.0215H297.943V101.318L302.945 95.0215H303.695V103.014H302.695V96.7169L297.693 103.014ZM287.938 103.014H286.938V95.0215H287.938V101.318L292.941 95.0215H293.941V103.014H292.941V96.7169L287.938 103.014ZM282.936 103.014V99.381H278.435V103.014H277.434V95.0215H278.435V98.4122H282.936V95.0215H283.937V103.014H282.936ZM270.181 103.014V95.0215H274.933V95.9903H271.181V98.6544H274.433V99.381H271.181V102.045H274.933V103.014H270.181ZM266.179 103.014V95.9903H263.178V97.4434C262.678 102.529 261.427 103.256 260.177 103.014V102.045C260.677 102.045 260.677 102.045 261.177 101.561C261.177 101.561 261.427 101.076 261.427 100.834C261.677 100.108 262.178 98.6544 262.178 96.7169L262.428 95.0215H267.18V103.014H266.179ZM253.174 95.9903V95.0215H259.927V95.9903H256.925V103.014H255.925V95.9903H253.174ZM249.172 96.2325L247.672 99.6232H250.673L249.172 96.2325ZM245.171 103.014L248.672 95.0215H249.672L253.174 103.014H251.923L250.923 100.592H247.171L246.171 103.014H245.171ZM243.17 95.0215V103.014H242.169V99.6232C241.669 99.8653 240.919 100.108 240.168 100.108C239.418 100.108 238.668 99.8653 238.168 99.6232C237.918 99.1388 237.667 98.4122 237.667 97.6856V95.0215H238.668V97.4434C238.668 98.6544 239.168 99.1388 240.419 99.1388C240.919 99.1388 241.669 99.1388 242.169 98.6544V95.0215H243.17ZM230.664 103.014V95.0215H235.416V95.9903H231.665V98.6544H234.916V99.381H231.665V102.045H235.416V103.014H230.664ZM226.663 103.014V95.9903H222.411V103.014H221.411V95.0215H227.663V103.014H226.663ZM214.408 99.381V102.045C214.908 102.045 215.408 102.045 215.658 102.045C216.909 102.045 217.659 101.561 217.659 100.592C217.659 99.8653 216.909 99.381 215.908 99.381H214.408ZM214.408 95.9903V98.6544H215.908C216.659 98.6544 217.409 98.17 217.409 97.2012C217.409 96.4747 216.909 95.9903 215.658 95.9903C215.408 95.9903 215.158 95.9903 214.408 95.9903ZM213.407 95.0215C214.658 95.0215 215.408 95.0215 215.658 95.0215C217.659 95.0215 218.409 95.7481 218.409 96.959C218.409 97.9278 217.909 98.6544 216.909 98.8966C217.909 99.1388 218.659 99.6232 218.659 100.834C218.659 102.287 217.409 103.014 215.658 103.014C214.908 103.014 214.158 103.014 213.407 103.014V95.0215Z" fill="black"/>
<path d="M207.079 95.1523L204.339 99.2794L207.328 103.664H206.082L203.592 100.053L201.101 103.664H200.105L203.094 99.2794L200.105 95.1523H201.35L203.592 98.5056L206.082 95.1523H207.079ZM197.116 95.1523H198.112V103.664H197.116V95.1523ZM191.637 99.2794V102.633C192.135 102.633 192.633 102.633 192.633 102.633C193.878 102.633 194.626 102.117 194.626 100.827C194.626 99.7952 193.878 99.2794 192.633 99.2794C192.384 99.2794 192.135 99.2794 191.637 99.2794ZM191.637 95.1523V98.2476C192.135 98.2476 192.384 98.2476 192.633 98.2476C194.626 98.2476 195.622 99.2794 195.622 100.827C195.622 102.633 194.626 103.664 192.384 103.664C192.135 103.664 191.886 103.664 191.388 103.664C191.139 103.664 190.89 103.664 190.641 103.664V95.1523H191.637ZM186.656 103.664V99.7952H182.173V103.664H181.176V95.1523H182.173V98.7635H186.656V95.1523H187.652V103.664H186.656ZM178.935 102.891C178.437 103.406 177.44 103.664 176.444 103.664C175.199 103.664 174.203 103.406 173.455 102.633C172.708 101.859 172.21 100.827 172.21 99.5373C172.21 98.2476 172.708 97.2159 173.455 96.442C174.203 95.4103 175.199 95.1523 176.444 95.1523C177.44 95.1523 178.188 95.4103 178.935 95.9262L178.437 96.7C177.939 96.1841 177.191 96.1841 176.444 96.1841C175.448 96.1841 174.701 96.442 174.203 96.9579C173.705 97.7317 173.455 98.5056 173.455 99.5373C173.455 100.311 173.705 101.343 174.203 101.859C174.701 102.375 175.697 102.891 176.444 102.891C177.44 102.891 177.939 102.633 178.686 102.117L178.935 102.891ZM171.463 95.1523L168.474 101.601C167.976 103.148 167.478 103.664 166.482 103.664C165.984 103.664 165.735 103.664 165.486 103.406L165.984 102.375C165.984 102.633 166.233 102.633 166.482 102.633C166.98 102.633 167.229 102.375 167.478 101.859L167.727 101.601L163.991 95.1523H164.987L168.225 100.569L170.467 95.1523H171.463ZM162.995 95.1523L159.259 99.2794L162.995 103.664H161.75L158.014 99.2794L161.75 95.1523H162.995ZM157.018 95.1523H158.014V103.664H157.018V95.1523ZM150.044 99.7952V102.633C150.542 102.633 151.04 102.633 151.538 102.633C152.534 102.633 153.282 102.117 153.282 101.085C153.282 100.311 152.534 99.7952 151.538 99.7952H150.044ZM150.044 96.1841V99.0214H151.538C152.285 99.0214 153.033 98.5056 153.033 97.4738C153.033 96.7 152.534 96.1841 151.289 96.1841C151.04 96.1841 150.791 96.1841 150.044 96.1841ZM149.297 95.1523C150.293 95.1523 151.04 95.1523 151.289 95.1523C153.282 95.1523 154.029 95.9262 154.029 97.2159C154.029 98.2476 153.531 99.0214 152.534 99.2794C153.78 99.5373 154.278 100.053 154.278 101.343C154.278 102.891 153.033 103.664 151.289 103.664C150.542 103.664 149.795 103.664 149.297 103.664V95.1523ZM142.074 99.5373V96.1841C141.327 96.1841 141.078 96.1841 140.829 96.1841C139.583 96.1841 138.836 96.9579 138.836 97.9897C138.836 98.2476 139.085 98.7635 139.334 99.0214C139.583 99.2794 139.832 99.5373 140.331 99.5373H142.074ZM142.074 103.664V100.569H140.331L138.338 103.664H137.342L139.583 100.311C138.587 100.053 137.84 99.0214 137.84 97.9897C137.84 97.2159 138.089 96.442 138.587 95.9262C139.334 95.4103 140.081 95.1523 141.078 95.1523C141.327 95.1523 141.576 95.1523 142.074 95.1523C142.572 95.1523 142.821 95.1523 143.07 95.1523V103.664H142.074ZM134.104 103.664V99.7952H129.621V103.664H128.625V95.1523H129.621V98.7635H134.104V95.1523H135.1V103.664H134.104ZM126.632 95.1523L123.644 99.2794L126.632 103.664H125.387L122.896 100.053L120.655 103.664H119.409L122.398 99.2794L119.409 95.1523H120.655L123.145 98.5056L125.387 95.1523H126.632ZM118.413 95.1523L115.674 101.601C115.175 103.148 114.428 103.664 113.681 103.664C113.183 103.664 112.934 103.664 112.685 103.406L112.934 102.375C113.183 102.633 113.432 102.633 113.681 102.633C114.179 102.633 114.428 102.375 114.677 101.859V101.601L111.191 95.1523H112.187L115.175 100.569L117.417 95.1523H118.413ZM109.945 95.1523L106.458 99.2794L110.194 103.664H108.949L105.213 99.2794L108.949 95.1523H109.945ZM103.968 95.1523H104.964V103.664H103.968V95.1523Z" fill="black"/>
<path d="M103.968 84.2067V55.0227H110.656V67.7907L120.08 55.0227H128.288L117.04 68.3987L128.896 84.2067H120.688L110.656 70.2227V84.2067H103.968ZM297.312 55.0227H303.999V84.2067H297.312V55.0227ZM266.304 61.1027V55.0227H290.624V61.1027H281.808V84.2067H275.12V61.1027H266.304ZM250.8 63.5347L247.456 71.7427H254.144L250.8 63.5347ZM235.904 84.2067L248.064 55.0227H253.84L266 84.2067H259.008L256.576 78.1267H245.024L242.592 84.2067H235.904ZM199.424 84.2067V55.0227H206.112L215.232 67.1827L223.744 55.0227H230.128V84.2067H223.44V65.6627L215.232 76.9107H214.32L206.112 65.6627V84.2067H199.424ZM182.704 55.0227H189.392V84.2067H182.704V55.0227ZM158.688 61.1027V67.7907H161.12C164.16 67.7907 165.68 66.5747 165.68 64.1427C165.68 62.0147 164.464 61.1027 161.728 61.1027C161.424 61.1027 160.512 61.1027 158.688 61.1027ZM158.688 84.2067H152V55.0227C152.608 55.0227 154.432 55.0227 157.168 55.0227C160.208 54.7188 161.728 54.7188 162.032 54.7188C169.632 54.7188 172.672 58.3667 172.672 64.1427C172.672 68.0947 171.152 71.1347 167.808 72.6547L176.32 84.2067H168.416L161.12 73.8707H158.688V84.2067ZM135.28 55.0227H141.968V84.2067H135.28V55.0227Z" fill="black"/>
</svg>
