<?xml version="1.0" encoding="utf-8"?>
<!-- Generator: Adobe Illustrator 21.1.0, SVG Export Plug-In . SVG Version: 6.00 Build 0)  -->
<svg version="1.1" id="Capa_1" xmlns="http://www.w3.org/2000/svg" xmlns:xlink="http://www.w3.org/1999/xlink" x="0px" y="0px"
	 width="14px" height="10px" viewBox="0 0 14 10" style="enable-background:new 0 0 14 10;" xml:space="preserve">
<style type="text/css">
	.st0{fill:#B5B2BC;}
</style>
<g>
	<g>
		<path class="st0" d="M13.4,3.7L12.7,4L7.3,6.7c0,0,0,0,0,0c0,0,0,0,0,0c0,0,0,0,0,0c0,0,0,0,0,0c0,0,0,0,0,0c0,0,0,0,0,0
			c0,0,0,0,0,0c0,0,0,0,0,0c0,0,0,0,0,0c0,0,0,0,0,0c0,0,0,0,0,0c0,0,0,0,0,0c0,0,0,0,0,0c0,0,0,0,0,0c0,0,0,0,0,0c0,0,0,0,0,0
			s0,0,0,0c0,0,0,0,0,0c0,0,0,0,0,0c0,0,0,0,0,0c0,0,0,0,0,0c0,0,0,0,0,0c0,0,0,0,0,0c0,0,0,0,0,0c0,0,0,0,0,0c0,0,0,0,0,0
			c0,0,0,0,0,0c0,0,0,0,0,0c0,0,0,0,0,0c0,0,0,0,0,0c0,0,0,0,0,0c0,0,0,0,0,0L1.3,4L0.6,3.7L0,3.4v6C0,9.7,0.3,10,0.6,10h12.7
			c0.4,0,0.6-0.3,0.6-0.6v-6L13.4,3.7z"/>
	</g>
</g>
<g>
	<g>
		<path class="st0" d="M13.4,0H0.6C0.3,0,0,0.3,0,0.6V2l0.6,0.3l0.6,0.3L7,5.5l5.7-2.9l0.6-0.3L14,2V0.6C14,0.3,13.7,0,13.4,0z"/>
	</g>
</g>
</svg>
