<?xml version="1.0" encoding="utf-8"?>
<!-- Generator: Adobe Illustrator 21.1.0, SVG Export Plug-In . SVG Version: 6.00 Build 0)  -->
<svg version="1.1" id="Слой_1" xmlns="http://www.w3.org/2000/svg" xmlns:xlink="http://www.w3.org/1999/xlink" x="0px" y="0px"
	 width="70px" height="220px" viewBox="0 0 70 220" style="enable-background:new 0 0 70 220;" xml:space="preserve">
<style type="text/css">
	.st0{fill:#F5F5F5;}
</style>
<path class="st0" d="M58.8,212.1H39V66.8h30.5L52.5,2.9c-0.5-1.7-2-2.9-3.8-2.9H21.3c-1.8,0-3.4,1.2-3.8,2.9L0.5,66.8h14.7
	l-0.3,24.8c-3,1.9-4.4,5.6-3.4,9s4.3,5.7,7.9,5.5c3.6-0.1,6.6-2.6,7.4-6.1c0.8-3.5-0.9-7-4-8.7l0.3-24.5v0H31v145.4H11.2
	c-5,0-9.5,3.2-11.2,7.9h70C68.3,215.3,63.8,212.1,58.8,212.1z"/>
</svg>
