<?xml version="1.0" encoding="utf-8"?>
<!-- Generator: Adobe Illustrator 21.1.0, SVG Export Plug-In . SVG Version: 6.00 Build 0)  -->
<svg version="1.1" id="Capa_1" xmlns="http://www.w3.org/2000/svg" xmlns:xlink="http://www.w3.org/1999/xlink" x="0px" y="0px"
	 width="10px" height="22px" viewBox="0 0 10 22" style="enable-background:new 0 0 10 22;" xml:space="preserve">
<style type="text/css">
	.st0{fill:#E8E8E8;}
</style>
<path class="st0" d="M7.3,0c4.6,6.4,3.2,15-2.9,19.8l2.2,0.1c0.4,0,0.7,0.2,0.9,0.5c0.1,0.2,0.2,0.4,0.2,0.6c0,0.6-0.5,1-1.2,1
	l-4.6-0.2c-0.6,0-1.2-0.3-1.5-0.8c-0.3-0.5-0.4-1-0.2-1.6l1.4-4.1c0.2-0.5,0.8-0.8,1.4-0.7c0.6,0.2,0.9,0.8,0.7,1.3l-0.8,2.2
	C8.2,14.1,9.4,6.7,5.4,1.2"/>
</svg>
