<svg width="203" height="70" viewBox="0 0 203 70" fill="none" xmlns="http://www.w3.org/2000/svg">
<path d="M59.479 36.7427C59.479 44.8627 56.028 52.3737 50.75 57.6517C45.269 62.9297 37.961 66.3807 29.638 66.3807C21.518 66.3807 14.007 62.9297 8.729 57.6517C3.248 52.3737 0 44.8627 0 36.7427H6.09C6.09 43.2387 8.729 49.1257 12.992 53.3887C17.255 57.6517 23.142 60.2907 29.638 60.2907C36.134 60.2907 42.021 57.6517 46.487 53.3887C50.75 49.1257 53.389 43.2387 53.389 36.7427H59.479Z" fill="black"/>
<path d="M29.8409 28.4196C27.6079 28.4196 25.5779 29.2316 23.9539 30.8556C22.5329 32.2766 21.7209 34.3066 21.7209 36.5396C21.7209 38.7726 22.5329 40.8026 23.9539 42.2236C25.5779 43.8476 27.6079 44.6596 29.8409 44.6596V50.7496C25.7809 50.7496 22.3299 49.1256 19.6909 46.4866C17.2549 44.0506 15.6309 40.3966 15.6309 36.5396C15.6309 32.6826 17.2549 29.0286 19.6909 26.5926C22.3299 23.9536 25.7809 22.3296 29.8409 22.3296V28.4196Z" fill="#0D8234"/>
<path d="M29.8409 6.09C27.6079 6.09 25.5779 6.902 23.9539 8.526C22.5329 9.947 21.7209 11.977 21.7209 14.21H15.6309C15.6309 10.353 17.0519 6.699 19.6909 4.06C22.3299 1.624 25.7809 0 29.8409 0V6.09Z" fill="#E9A317"/>
<path d="M29.6382 11.1646C33.4952 11.1646 37.1492 12.7886 39.5852 15.4276C42.2242 17.8636 43.8482 21.5176 43.8482 25.3746C43.8482 29.2316 42.2242 32.8855 39.5852 35.5245C37.1492 37.9606 33.4952 39.5846 29.6382 39.5846V33.4946C31.8712 33.4946 33.9012 32.6826 35.3222 31.0585C36.7432 29.6376 37.7582 27.6075 37.7582 25.3746C37.7582 23.1416 36.7432 21.1116 35.3222 19.6906C33.9012 18.0666 31.8712 17.2546 29.6382 17.2546V11.1646Z" fill="#E61717"/>
<path d="M199.791 62.3208C199.958 62.6443 200.125 62.806 200.626 62.806C201.127 62.806 201.294 62.6443 201.461 62.3208H201.962C201.962 62.806 201.294 63.2912 200.626 63.2912C199.791 63.2912 199.29 62.806 199.123 62.3208H199.791ZM198.789 68.7899H198.288V63.4529H198.956V67.6578L202.296 63.4529H202.797V68.7899H202.129V64.585L198.789 68.7899ZM192.275 68.7899H191.607V63.4529H192.275V67.6578L195.615 63.4529H196.283V68.7899H195.615V64.585L192.275 68.7899ZM188.935 68.7899V66.364H185.929V68.7899H185.261V63.4529H185.929V65.7171H188.935V63.4529H189.603V68.7899H188.935ZM180.417 68.7899V63.4529H183.591V64.0998H181.085V65.8788H183.257V66.364H181.085V68.143H183.591V68.7899H180.417ZM177.745 68.7899V64.0998H175.741V65.0702C175.407 68.4664 174.572 68.9516 173.737 68.7899V68.143C174.071 68.143 174.071 68.143 174.405 67.8195C174.405 67.8195 174.572 67.4961 174.572 67.3343C174.739 66.8492 175.073 65.8788 175.073 64.585L175.24 63.4529H178.413V68.7899H177.745ZM169.061 64.0998V63.4529H173.57V64.0998H171.566V68.7899H170.898V64.0998H169.061ZM166.388 64.2615L165.386 66.5257H167.391L166.388 64.2615ZM163.716 68.7899L166.054 63.4529H166.722L169.061 68.7899H168.226L167.558 67.1726H165.052L164.384 68.7899H163.716ZM162.38 63.4529V68.7899H161.712V66.5257C161.378 66.6874 160.877 66.8492 160.376 66.8492C159.875 66.8492 159.374 66.6874 159.04 66.5257C158.873 66.2022 158.706 65.7171 158.706 65.2319V63.4529H159.374V65.0702C159.374 65.8788 159.708 66.2022 160.543 66.2022C160.877 66.2022 161.378 66.2022 161.712 65.8788V63.4529H162.38ZM154.03 68.7899V63.4529H157.203V64.0998H154.698V65.8788H156.869V66.364H154.698V68.143H157.203V68.7899H154.03ZM151.357 68.7899V64.0998H148.518V68.7899H147.85V63.4529H152.025V68.7899H151.357ZM143.174 66.364V68.143C143.508 68.143 143.842 68.143 144.009 68.143C144.844 68.143 145.345 67.8195 145.345 67.1726C145.345 66.6874 144.844 66.364 144.176 66.364H143.174ZM143.174 64.0998V65.8788H144.176C144.677 65.8788 145.178 65.5553 145.178 64.9084C145.178 64.4232 144.844 64.0998 144.009 64.0998C143.842 64.0998 143.675 64.0998 143.174 64.0998ZM142.506 63.4529C143.341 63.4529 143.842 63.4529 144.009 63.4529C145.345 63.4529 145.846 63.9381 145.846 64.7467C145.846 65.3936 145.512 65.8788 144.844 66.0405C145.512 66.2022 146.013 66.5257 146.013 67.3343C146.013 68.3047 145.178 68.7899 144.009 68.7899C143.508 68.7899 143.007 68.7899 142.506 68.7899V63.4529Z" fill="black"/>
<path d="M138.28 63.5396L136.451 66.2954L138.446 69.2235H137.615L135.952 66.8122L134.288 69.2235H133.623L135.619 66.2954L133.623 63.5396H134.455L135.952 65.7787L137.615 63.5396H138.28ZM131.627 63.5396H132.293V69.2235H131.627V63.5396ZM127.969 66.2954V68.5346C128.301 68.5346 128.634 68.5346 128.634 68.5346C129.465 68.5346 129.964 68.1901 129.964 67.3289C129.964 66.6399 129.465 66.2954 128.634 66.2954C128.467 66.2954 128.301 66.2954 127.969 66.2954ZM127.969 63.5396V65.6065C128.301 65.6065 128.467 65.6065 128.634 65.6065C129.964 65.6065 130.63 66.2954 130.63 67.3289C130.63 68.5346 129.964 69.2235 128.467 69.2235C128.301 69.2235 128.135 69.2235 127.802 69.2235C127.636 69.2235 127.47 69.2235 127.303 69.2235V63.5396H127.969ZM124.642 69.2235V66.6399H121.649V69.2235H120.983V63.5396H121.649V65.9509H124.642V63.5396H125.308V69.2235H124.642ZM119.487 68.7068C119.154 69.0513 118.489 69.2235 117.823 69.2235C116.992 69.2235 116.327 69.0513 115.828 68.5346C115.329 68.0179 114.996 67.3289 114.996 66.4677C114.996 65.6065 115.329 64.9175 115.828 64.4008C116.327 63.7118 116.992 63.5396 117.823 63.5396C118.489 63.5396 118.988 63.7118 119.487 64.0563L119.154 64.573C118.821 64.2285 118.322 64.2285 117.823 64.2285C117.158 64.2285 116.659 64.4008 116.327 64.7452C115.994 65.262 115.828 65.7787 115.828 66.4677C115.828 66.9844 115.994 67.6734 116.327 68.0179C116.659 68.3623 117.324 68.7068 117.823 68.7068C118.489 68.7068 118.821 68.5346 119.32 68.1901L119.487 68.7068ZM114.497 63.5396L112.501 67.8456C112.169 68.8791 111.836 69.2235 111.171 69.2235C110.838 69.2235 110.672 69.2235 110.506 69.0513L110.838 68.3623C110.838 68.5346 111.005 68.5346 111.171 68.5346C111.504 68.5346 111.67 68.3623 111.836 68.0179L112.002 67.8456L109.508 63.5396H110.173L112.335 67.1566L113.832 63.5396H114.497ZM108.843 63.5396L106.348 66.2954L108.843 69.2235H108.011L105.516 66.2954L108.011 63.5396H108.843ZM104.851 63.5396H105.516V69.2235H104.851V63.5396ZM100.194 66.6399V68.5346C100.527 68.5346 100.859 68.5346 101.192 68.5346C101.857 68.5346 102.356 68.1901 102.356 67.5011C102.356 66.9844 101.857 66.6399 101.192 66.6399H100.194ZM100.194 64.2285V66.1232H101.192C101.691 66.1232 102.19 65.7787 102.19 65.0897C102.19 64.573 101.857 64.2285 101.026 64.2285C100.859 64.2285 100.693 64.2285 100.194 64.2285ZM99.6953 63.5396C100.361 63.5396 100.859 63.5396 101.026 63.5396C102.356 63.5396 102.855 64.0563 102.855 64.9175C102.855 65.6065 102.523 66.1232 101.857 66.2954C102.689 66.4677 103.022 66.8122 103.022 67.6734C103.022 68.7068 102.19 69.2235 101.026 69.2235C100.527 69.2235 100.028 69.2235 99.6953 69.2235V63.5396ZM94.8722 66.4677V64.2285C94.3733 64.2285 94.2069 64.2285 94.0406 64.2285C93.2091 64.2285 92.7101 64.7452 92.7101 65.4342C92.7101 65.6065 92.8764 65.9509 93.0427 66.1232C93.2091 66.2954 93.3754 66.4677 93.708 66.4677H94.8722ZM94.8722 69.2235V67.1566H93.708L92.3775 69.2235H91.7122L93.2091 66.9844C92.5438 66.8122 92.0449 66.1232 92.0449 65.4342C92.0449 64.9175 92.2112 64.4008 92.5438 64.0563C93.0427 63.7118 93.5417 63.5396 94.2069 63.5396C94.3733 63.5396 94.5396 63.5396 94.8722 63.5396C95.2048 63.5396 95.3711 63.5396 95.5374 63.5396V69.2235H94.8722ZM89.5502 69.2235V66.6399H86.5565V69.2235H85.8913V63.5396H86.5565V65.9509H89.5502V63.5396H90.2154V69.2235H89.5502ZM84.5608 63.5396L82.565 66.2954L84.5608 69.2235H83.7292L82.0661 66.8122L80.5693 69.2235H79.7377L81.7334 66.2954L79.7377 63.5396H80.5693L82.2324 65.7787L83.7292 63.5396H84.5608ZM79.0724 63.5396L77.243 67.8456C76.9104 68.8791 76.4114 69.2235 75.9125 69.2235C75.5799 69.2235 75.4135 69.2235 75.2472 69.0513L75.4135 68.3623C75.5799 68.5346 75.7462 68.5346 75.9125 68.5346C76.2451 68.5346 76.4114 68.3623 76.5777 68.0179V67.8456L74.2494 63.5396H74.9146L76.9104 67.1566L78.4072 63.5396H79.0724ZM73.4178 63.5396L71.0894 66.2954L73.5841 69.2235H72.7525L70.2578 66.2954L72.7525 63.5396H73.4178ZM69.4263 63.5396H70.0915V69.2235H69.4263V63.5396Z" fill="black"/>
<path d="M69.4263 56.231V36.743H73.8923V45.269L80.1853 36.743H85.6663L78.1553 45.675L86.0723 56.231H80.5913L73.8923 46.893V56.231H69.4263ZM198.534 36.743H203V56.231H198.534V36.743ZM177.828 40.803V36.743H194.068V40.803H188.181V56.231H183.715V40.803H177.828ZM167.475 42.427L165.242 47.908H169.708L167.475 42.427ZM157.528 56.231L165.648 36.743H169.505L177.625 56.231H172.956L171.332 52.171H163.618L161.994 56.231H157.528ZM133.168 56.231V36.743H137.634L143.724 44.863L149.408 36.743H153.671V56.231H149.205V43.848L143.724 51.359H143.115L137.634 43.848V56.231H133.168ZM122.003 36.743H126.469V56.231H122.003V36.743ZM105.966 40.803V45.269H107.59C109.62 45.269 110.635 44.457 110.635 42.833C110.635 41.412 109.823 40.803 107.996 40.803C107.793 40.803 107.184 40.803 105.966 40.803ZM105.966 56.231H101.5V36.743C101.906 36.743 103.124 36.743 104.951 36.743C106.981 36.54 107.996 36.54 108.199 36.54C113.274 36.54 115.304 38.976 115.304 42.833C115.304 45.472 114.289 47.502 112.056 48.517L117.74 56.231H112.462L107.59 49.329H105.966V56.231ZM90.3353 36.743H94.8013V56.231H90.3353V36.743Z" fill="black"/>
</svg>
