<?xml version="1.0" encoding="utf-8"?>
<!-- Generator: Adobe Illustrator 21.1.0, SVG Export Plug-In . SVG Version: 6.00 Build 0)  -->
<svg version="1.1" id="Capa_1" xmlns="http://www.w3.org/2000/svg" xmlns:xlink="http://www.w3.org/1999/xlink" x="0px" y="0px"
	 width="8px" height="18px" viewBox="0 0 8 18" style="enable-background:new 0 0 8 18;" xml:space="preserve">
<style type="text/css">
	.st0{fill:#6A539E;}
</style>
<g>
	<path class="st0" d="M7.5,5.2c-0.3,0-0.5,0.2-0.5,0.6v8.2c0,0.8-0.3,1.5-0.9,2.1c-0.6,0.6-1.2,0.9-2.1,0.9c-0.8,0-1.5-0.3-2.1-0.9
		c-0.6-0.6-0.9-1.3-0.9-2.1v-3.1V9.2V5.1V3.2v0v0c0-0.6,0.2-1,0.6-1.4C2,1.3,2.5,1.1,3.1,1.1c0.6,0,1,0.2,1.4,0.6
		c0.4,0.4,0.6,0.9,0.6,1.4v0v0v9.1c0,0.6-0.4,1-1,1c-0.5,0-1-0.5-1-1V7.5C3.1,7.2,2.8,7,2.5,7S2,7.2,2,7.5v4.8
		c0,0.6,0.2,1.1,0.6,1.5c0.4,0.4,0.9,0.6,1.5,0.6c0.6,0,1.1-0.2,1.5-0.6c0.4-0.4,0.6-0.9,0.6-1.5V3.2v0c0-0.9-0.3-1.6-0.9-2.2
		C4.6,0.3,3.9,0,3.1,0C2.2,0,1.5,0.3,0.9,0.9C0.3,1.5,0,2.3,0,3.2v0v2v4.1v1.6v3.1c0,1.1,0.4,2.1,1.2,2.9S2.9,18,4,18
		s2.1-0.4,2.8-1.2C7.6,16,8,15,8,13.9V5.8C8,5.4,7.8,5.2,7.5,5.2z"/>
</g>
</svg>
