<svg width="25" height="25" viewBox="0 0 25 25" fill="none" xmlns="http://www.w3.org/2000/svg">
<g clip-path="url(#clip0_723_9203)">
<path d="M0 12.5C0 19.4036 5.59641 25 12.5 25C19.4036 25 25 19.4036 25 12.5C25 5.59636 19.4036 -4.95911e-05 12.5 -4.95911e-05C5.59641 -4.95911e-05 0 5.59636 0 12.5Z" fill="#0077FF"/>
<path d="M11.8247 16.9908H12.6525C12.6525 16.9908 12.9008 16.9908 13.0663 16.826C13.1492 16.6614 13.1492 16.4966 13.1492 16.4966C13.1492 16.4966 13.1492 15.3432 13.6458 15.1785C14.1425 15.0137 14.8047 16.2494 15.5497 16.7436C16.0464 17.0732 16.4603 16.9908 16.4603 16.9908H18.3643C18.3643 16.9908 19.3576 16.9084 18.8609 16.1671C18.8609 16.0847 18.6126 15.5904 17.4536 14.5194C16.2947 13.4485 16.4603 13.6133 17.8676 11.7185C18.6953 10.5653 19.1093 9.82379 18.9436 9.57666C18.8609 9.32952 18.1986 9.32952 18.1986 9.32952H16.0464C16.0464 9.32952 15.8809 9.32952 15.7981 9.4119C15.7152 9.49427 15.6325 9.65904 15.6325 9.65904C15.6325 9.65904 15.3014 10.5653 14.8875 11.3066C13.9769 12.8719 13.563 12.9543 13.3975 12.8719C13.0663 12.6247 13.1492 11.9657 13.1492 11.4714C13.1492 9.90618 13.3975 9.24714 12.6525 9.08238C12.4869 9.08238 12.3213 9 11.7418 9C10.9968 9 10.3346 9 10.0036 9.16475C9.67242 9.32952 9.50686 9.57666 9.67242 9.57666C9.83798 9.57666 10.1691 9.65904 10.3346 9.90618C10.583 10.2357 10.583 10.8947 10.583 10.8947C10.583 10.8947 10.7485 12.7071 10.2519 12.9543C10.0036 13.119 9.58964 12.7895 8.76184 11.3066C8.34795 10.5653 8.01684 9.74142 8.01684 9.74142C8.01684 9.74142 7.85127 9.57666 7.68572 9.49427C7.60294 9.4119 7.43738 9.32952 7.43738 9.32952H5.45069C5.45069 9.32952 5.11957 9.32952 5.03679 9.49427C4.95402 9.57666 5.03679 9.82379 5.03679 9.82379C5.03679 9.82379 6.6096 13.5308 8.43073 15.3432C10.0036 17.0732 11.8247 16.9908 11.8247 16.9908Z" fill="white"/>
</g>
<defs>
<clipPath id="clip0_723_9203">
<rect width="25" height="25" fill="white"/>
</clipPath>
</defs>
</svg>
